<?xml version="1.0" encoding="UTF-8"?>
<svg id="_レイヤー_1" data-name="レイヤー_1" xmlns="http://www.w3.org/2000/svg" version="1.1" viewBox="0 0 354.04 410.55">
  <!-- Generator: Adobe Illustrator 29.6.1, SVG Export Plug-In . SVG Version: 2.1.1 Build 9)  -->
  <defs>
    <style>
      .st0 {
        fill: gray;
      }
    </style>
  </defs>
  <g id="Japan">
    <path class="st0" d="M24.31,363.15l.16.37.16.5.02.44-.27.19-.21.2-.71,1.29-.25.77-.21.17-.48.38-.38-.2-.38-.3-.08-.43.43-.17.29-.8.54-.73.31-.17.45-.15.29-.38.18-.49.13-.49ZM62.89,346.72l-.07.47.36.38.31.49-.52.37-.22.13-.24.05-.16.09-.08.21-.16.64-.05.56-.06.12-.11.06-.17.16-.21.48-.25,1.21-.37.88-.25,1.18-.41,1.51-.7,2.3-.78,2.6-.23.69.05.44-.05.27.17.62.25.41.58.22-.07.22-.3.4-.07.2-.51,2.68.1.73-.66.55-.24.3-.09.4-.06.04-.27.46-.09.24-.02.29.05.15.07.09.04.11v.51s-.09.13-.09.13l-.26.27-.05.17-.2,1.15-.1.22-.27.37-.07.21-.02.18-.05.15-.14.12-.07-.09-.05-.04-.14-.05.09-.15.02-.06.03-.1-.83.15-.39.02-.33-.17-.1-.18v-.4s-.04-.24-.04-.24l-.09-.15-.4-.43-.14-.2-.1-.03-.15-.03-.45.12-.35-.28-.22-.18-.42.05-.43.12-.77.36-.31.24-.24.29-.35.62-.3.93.24.22.7.22.49.15.43.23.07.28-.06.19-.44.3-.18.36.38.15.66-.3.15.21-1.48,1.3-.56-.05-.51.15-.03.51-.2.32-.35.73-.23.34-.25.25-.32.24-.34.2-.35.15-.75.26-.52.15-.53.06-.56.23-.38.3-.13.22-.87.23-.63.68-.35.33-.42.04.12-1.59.53-.5.82-.51.29-.23.45-1.57-.22-.42.54-.93.19-.79.14-1.21-.03-.46-.26-.68-.27-.71-.46-.8-.9-.57-.22-.63.26-1.04-.2-.41-1.21-.23-.36-.22-.21-.05-.23-.17-.15-.3.47-.63.49-.25.5.11.52-.04.49.12.22.41-.06.64.07.18.27.1h.27s.2-.1.2-.1l.37-.39.46-.77.23-.95-.12-.88-.58-.56-.79.04-1.07-.41-.85.26-.65.78-.06.24-.08.62-.08.2-.56.65-.15.25-.19.83-.33.59-.27.69-.23.98-.04.46.09.5.62,1.38.25.98.22.48.32.2.28.1.43.63.75.1.03.31-.24.84-.07.4-.14.49-.34.18-.4.16-.35.41-.26-.29h-.23s-.24.12-.24.12h-.29s-.31-.15-.31-.15l-.1-.16v-.34s-.21-.56-.21-.56l-.24-.35-.9-.53-3.16-.1-.46.02-.54.21-.55-.05-.21-.35-.07-.44-.12-.35-.21-.51-.28-.3.23.02.33.05.02-.28-.23-.42-.54-.55-.61-.5-.45-.27.54-.27.17-.05h.19s.27.12.27.12l.18.03.24.1.4.51.27.23.34-.57.99-.96.24-.77.25-.4.23-.87.12-.8-.21-.59.27-.51-.03-.44-.22-.38-.58-.67-.78-1.23-.27-.21-.96-.58-.32-.12-.05-.23-.21-.53.2-.89.19-.2.67.26.25.12-.56-.58-.22-.36.36-.66.12-1.07-.13-.5-.18-.52-.23-.22-.09-.12-.33-.31-.02-.45.27-.23.37-.52v-.59l-.5-.51.55-.66.85-.32.62.81.41-.13.43-.3.25-.25.07-.16.2-.64v-.02s.08-.09.08-.09l.17-.07.04-.08-.02-.35.02-.08,1.49-1.62.21-.62.06-.13.27-.17.1-.12.04-.23-.07-.21.02-.22.16-.48.15-.05.54.53.19-.27.03-.3-.08-.68.1-.18.53-.73.44-.27.19-.61-.07-.63-.35-.34.17-.25.23-.09h.59s-.17-.31-.17-.31l-.47-.38-.06-.3.11-.2,1.46-1.29.31-.4.24-.61h-.55s-3.36.65-3.36.65l-.34.17-.28-.15.19-.34.37-.29,1.42-.72.44-.41.23-.12.32.03.33-.12.17-.04h.2v-.19l-.28-.12-.22-.24-.14-.29-.05-.26.04-.17.09-.18.23-.31.07-.14-.04-.1-.07-.11-.04-.16-.26-.48-1.58-1.29-.94-1.01-.6-.34-.17-.44-.14-1.6.04-1.06-.14-.47v-.31s-.02-.12-.02-.12l-.12-.1-.11-.03h-.11s-.09-.06-.09-.06l-.43-.32-.15-.17-.1-.28v-.21s-.06-.13-.06-.13l-.56-.08-.46-.13-.29-.03h-.21s-.66-.71-.66-.71l-.34-.23-.45.71-.84.6-.56.57-.48-.22.09.46.27.42.32.75.89,1.53.38.41-.07.49-.31.1v.54s-.32.33-.32.33l-.51.15-.3.32-.3.18-.4.21-.21.11.35.17.21.32.43.33h.51s.34-.06.34-.06l1-.74,1.31-.02.66.48.24.55.43.99.05.32.02.79-.04.22-.38.53-.08.32.2.39-.39.51-.74.39-.77.03-.19.16.02.27-.12.19-.36.06-.1.3-.17.1-.51.07-.35.26-.32-.02.15-.26-.07-.38-.29-.16-.17-.2-.36-.17v-.49s-.03-.55-.03-.55l.29.04.23-.1.28-.29.22-.17.26-.22.23-.25.18-.22-.06-.46-.24-.13-.18-.11-.08-.17.07-.13.09-.22-.24-.23-.62-.06-.2.16h-.25s-.67-.15-.67-.15l-.61.25-.29.3-.36.32-.49.11-.36.19-.42.06-.16-.2v-.22s-.09-.07-.09-.07l-.19.17.11.3-.26.41-.52.74-.27.42-.18.45-.42.33-.39.22-.29.02-.07.19-.11.39-.49.45-.47.35-.06.23-.13-.07-.28-.09-.28.18-.19.1-.13-.3.32-.26.25-.1.28-.12.16-.16.23-.61.21-.38.2-.36.07-.36-.09-.14-.22.13-.13-.16v-.19s.25-.04.25-.04l.13-.19.22-.07.17.26.23-.17.27-.57-.73.06v-.34s-.41-.89-.41-.89l-.21-.19-.18-.11-.12-.15-.05-.3-.11-.26-.34-.11-.21.21-.24.11-.24-.53-.47-.3-.23-.37-.18-.38-.08-.25-.03-.29-.07-.31-.17-.24-.19-.2-.28-.09-.15-.73.03-.55.29-.26.15-.36-.08-.31.04-.4.18-.15.06-.72.37-.61.79.37.3.46v.06s0,.22,0,.22v.06s.08.01.08.01l.13-.13.12-.14.1.05.09.18-.13.15-.3.55-.06.37.12.31.21-.12.3-.54.63.19.32.37.23.37-.15.21-.04.23.05.58-.03.37-.16.2-.12-.23-.11-.59h-.18l.06.87.29.24.08.4-.27.27.42.28.16.12.18.19.21.15.07.15.1-.08.09-.15.28-.14.12-.19.18-.36,1.08.37,1.07.46.31-.09-.36-.43-1.12-1.61-.03-.7.2-.36.17-.56-.04-.51-.69-.51-.63-.64-.58.21-.39.27h-.21l-.03-.48-.51-.36-.23.17-.24.3-.29.03-.3-.21-.08-.26-.19-.62.12.02.21.07-.07-.45v-.21s.3-.12.3-.12l-.03-.22h-.23s-.4.41-.4.41l-.1-.26-.04-.31.03-.32-.27-.1.05.53-.09.54-.08.18-.15-.06-.33-.02-.15.27-.14.06-.09-.62.44-.11.07-.27-.08-.25-.18-.19-.23-.14-.21-.1.07-.22v-.15l-.07-.13-.15-.18-.15.11-.2.02-.22-.07-.36-.34-.21-.07h-.53l-.25-.36.23-.73.04-.41.17-.12.15.04.22-.2-.04-.16-.1-.28-.26-.48.1-.67.09-.57.25-.25.58.54.49-.08.59-.89.13.22-.06.67.5.23.89-.28,1.3.4.15.42h0s.1.65.1.65l.15.27.22.21.28.13-.07-.33-.14-.55.1-.79.26-.48.25-.26-.19-.29.14-.18-1.07-.71-.4-.45-.2-.25.2-.32.15-.35.29-.06.35.44.12.3.16.3.27.13.19-.15-.09-.34-.47-.6-.15-.79.37-.48-.03-.48.32.32.35.09.5-.28.66.38.39.47-.09.25-.24.29-.09.28.25.14.19-.22.09.25v.23s.17.22.17.22l.28.13.57.08.25-.12.23-.26.09-.6.22-.23.63-.28.37-.13.24.07.22-.18.08-.07.26-.04.28-.12.24-.21.13-.32h-.25s-.66.17-.66.17l-.2-.08-.05-.34-.18-.08-.25-.05-.1-.12.02-.17.11-.2.22-.2.21-.04h.2l.21-.08.35-.29-.06-.31.12-.26.23.02h.23s.18-.04.18-.04l.15-.08.14-.15.07-.63.26.13.23.16.1.22-.19.23.09.39.29.17.12.09.42-.09.07.2-.21.36.16.15.25.14.1.07.1-.12.13-.02.08-.13.2-.31h.31s.57,0,.57,0l.31-.14.37-.04.18-.28.06-.37.1-.48-.09-.19-.09-.27-.4.24-.36.32-.26.13-.26-.16-.23-.13-.13-.13-.24.07-.25-.22-.12-.42.1-.19.22.04.12.37.28.19.44.06.84-.36.32-.3.27-.33.28-.27.33-.11.15-.24.32-.39.05-.48-.07-.43-.23-.05-.16-.19.03-.3.1-.14.16-.09.21-.16.12-.19.23-.75.17.18.22-.02.47-.31.18-.2.07-.16.12-.12.34-.06.97.09.43-.07.43-.34.62-.94.16-.08.26-.03.24.02.3.15.51-.29.71-.02.78.12-.14.48.3-.14h.52s.2.3.2.3l.2.43.33.16.34-.05.26-.2.32-.44.17-.53.56-.48.63-.21.24.24-.07.52-.18.3-.06.15v.14s-.22.33-.22.33l.18.26-.04.33h-.31s.07.24.07.24l.05.18-.13.2-.09.15-.33.23-.03.33v.1s.08.08.08.08l.4.11.44-.11-.07.83.05.18.08.65.21.48.64,1.1.28.71.35.45.45.26.35-.05.53.12.88.14.64.21.75.06.56.56.81.03.91.16,1.03-.17.11-.18.74-.67.33-.38.17-.53.3-.34.46-.23.62-.1h.46s.33-.06.33-.06l.35.14.42.23.41-.05.41.07.46.64.48.89.34.62.15.49.06.51-.22.67.17.69-.2.52-.37.76-.06.57-.18.08-.47-.24-.33-.16-.38.15-.1.35.06.39-.08.31-.51.13-.18.1-.1.38-.41.08h-.41s-.18-.15-.18-.15l-.3-.34-.55.08-.16.55.25,1.65.37.3.4.15,1.32.05.87-.46.93.43.22-.39,1.05.41,1.23.23.59-.2.69-.4.37.06-.42.73-.22.52v.37s-.14.18-.14.18l-.33.12-.36.45-.09.42-.35.61.68.35.54-.38h.65s.23.1.23.1l-.56.38-.32.37-.12.29.36.18.21-.11.31.05.21.2.27.02.07-.27.04-.31h.16s.18.39.18.39l.14.22.19.14.18.04.19-.07.13-.14.1-.56.36.68-.08.31-.52.14-.8-.05h-.33s-.14.46-.14.46l-.33.41-.07.71.23.16.41.42h.31s.2.37.2.37l.22-.09.19-.05.13.08.11.14.15.07.25-.13v.12s.07.11.07.11l.16-.06.27-.35.53.11.42.09.06.24-.4-.07-.43.22-.38.09-.63.49-.26.36.09.16.19.1.09.17-.21.4-.18.16-.18.1-.18.13-.17.28.27.04.6-.09.11.14-.14.33-.33.28-.38.16-.29-.02-.39.37-.96-.13-.19.52v.68l-.02.08-.02.12-.09.1-.1.06-.06.07-.05.41-.02.36-.17.1-.29-.41-.25-.1-.11.33-.33.2-.25.44-.26.23-.1.12-.06.11v.04s.04.07.04.07l.02.19-.08.27-.37.65-.12.15-.28.1-.43-.05-.08.11-.12.42-.35.72.06.31.22.27h.35s.13.07.13.07l.36.42-.39.46-.45.11-.34-.14-.39-.07ZM125.17,313.54l.66-.15.37-.15.23.13-.39.22-.62.3-.77.38-.26.3-.72.1-.19.41-.58.05-.18.68-.5.1-.16.39-1.67,1.14-1.1.41-.57.46.26.3-.51.57-.07.3-.15.17-.28.11-.27-.08-.29.19.06.43-.04.3-.35.29-.48.58-.59,1.17-.62,2.07-.14.92-.19.71-.05.33-.11.63-.02.56-.28.3-.38-.83-.33-.54-.29.06-.44-.12.04-.51-.58-.59-.82-1.11-.3-.77-.59-.23-.57-.27-.55-.57-.35-.86-1.45-.16-1.89-.48-.49-.44-1.38.21-1.32.32-.38.34-.87.39-1.66.78-.32.58.1.4-.32.32-.51.21-.48.08h-.33s-.22.05-.22.05l-.17.11-.2.19-.38.54-.1.05.06-.43-.14-.07-.14-.1-.41.27-.47.44-.3.51.08.48-.13.29.05.2.12.17.08.18.02.12.08.08.02.12-.03.18-.09.1-.1.07-.04.09-.11.57-.25.33-.29.28-.24.17.05.53.15.17-.32.2-.12-.28-.28-.02-.52.64-.67,1.18-.51.69-.21.32.04.38-.02.23-.16.1-.31-.23-.45-.26-.71.38-.34.91-.15.93.31,1.11-.14.84-.26.17-.59-.04-.12.28.06.42-.05.51.29.18.14.29.17.2.39.36.27.35.21.45v.46s-.52.22-.52.22l-.37-.2-.16-.12-.11-.17-.2-.48-.1-.18-.36-.29-.49-.18-.46.09-.24.53-.19-.4-.28-.02-.31.21-.28.3-.36.21h-.42s-.4-.14-.4-.14l-.3-.15-.58-.53-.37-.38-.96.26-.76.65-.16-.51.07-.65.46-.64.35-.76.61-.67.25-.31.08-.3h-1.42s-.26.08-.26.08h-.18s-.88-.62-.88-.62l-.34-.12.27.33-.39-.04-.34-.15-.25.02-.14.51.12.06.18.18.11.09-.35.16-.34-.06-.28-.23-.37-.8.45-.37-.23-.53.27-.36.11-.19-.41-.74-.2-.42-.62-.07-.44-.2-.47.87-.29-.08.37-.59-.07-.35.23-.28.9.4.4-.07.24-.3h-.42l.12-.36v-.33s-.12-.24-.12-.24l-.28-.08v-.15l.46.02.09-.02.09-.08.15-.18.05-.18-.22-.08-.6-.02-.2-.14-.11-.33.05-.3.42-.14-.19-.28-.23-.15-.3-.19-.17.24-.34.05-.08-.41.52-.15.52.12.29.02.03.31.34.24.16.3.4-.3-.05-.43.23-.36.46-.1.25-.23-.24-.39-.25-.18.35-.31h-.35s-.34.12-.34.12l-.11-.21-.22-.1-.15-.14v-.35s.41-.32.41-.32l.36-.09.07-.17-.8-.04-1.37.29-.39-.12-.23-.17-.24-.08.11-.28.15-.1.34-.03.16-.13.04-.15.08-.69-.39.32-.24-.3v-.56s.36-.46.36-.46v-.17h-.28l.08-.2.12-.15.16-.11.19-.06-.82-.53-.37-.05-.38.02-.22.12-.24.12-.3-.17-.6.42-.51.16-.81.44-.71.39-.61.44-.22.37-.18.26h-.34s-.26-.16-.26-.16l.18-.41-.76.47-.99.56-.31-.1.39-.4.45-.27.88-.8.85-.28.36.11.27-.12-.2-.21-.04-.2.33-.21.58-.23.45.02.39-.26h.49s.6-.51.6-.51l2.44-1.22.33-.31.14-.4.13-.23.59-.72.19-.15.43-.41,2.08-.87.34-.34.55-.38.64-.64.42-1.02-.03-.73-.11-.68.18-.9.15-.66.12-.68.88-.14.05-.61.31-.52-.05-1,.59-.42,1-.67.31-.39,1.17-.31.07-.41.16-.24-.09-.43-.41-.04h-.22s.04-.24.04-.24l.37.06h.27s.28-.52.28-.52l.24.39.15.11.1.17.21.14,1.14,1.39.58,1.52.18.42.17.36.19.26.43.2.4.2.4.04.55-.22.73-.17.72-.22.11-.44.62-.23.43.06.47-.24.38.02.39.18,1.13-.08.48.1.99.38.51.04.43-.14.34-.25.27-.31.22-.32.3-.35.69-.63.27-.38.15-.46.14-1.13-.04-1.06-.1-.43-.17-.34-.26-.33-.34-.29-.34-.21-.32-.26-.29-.43.43.25.61.26.58.13.35-.13.37.39.59-.2.63-.49.47-.47.56-.45,1.27-.6.63-.4.18-.25.16-.34.19-.3.26-.13.18-.03.33-.12.2-.03.2.05.3.23.37.1.25.21.22.08h.19s.32-.15.32-.15h.19s.72.17.72.17l.15-.18.25-.53.33.39.12-.15.04-.36.06-.22.33-.05.19.15.11.27.07.31v.69l.1.25.34.1.16-.11.45-.54.1-.2.43.35.46.16.22.28-.28.72.8.47.26.05.25.1.45.45.29.11.54-.09.26.02.1.17.08.21.2.26.49.39.59.02.55-.42,1.35.07.43-.2.26-.06.27-.47.08.28-.22.28-.13.36.33-.05.36-.42.39-.15-.13.35-.28.39-.03.21v.19s.03.14.03.14l-.4.09.23.06.19.1.28-.03-.16.33-.22.38-.07.26.05.14-.36.59v.64s.05.43.05.43l-.12.1-.14.44-.02.15v.25s.11.5.11.5l.11.21.14.1h.26s.05-.28.05-.28l.21-.06.29.61.25.42.68.42-.12.23.25.13v.4s0,.36,0,.36l-.25.26-.08.24-.27.11-.23.14-.33.56.3.17,1.16-.04v.15l-.18.03-.21.11-.17.03v.17h0ZM99.11,298.22l-.2.51-1.47,1.9-.32.28-.62.3-.28.08-.25-.02-.11-.23.11-.18.25-.09.28-.06.2-.09.19-.43-.21-.29-.44-.14-.51.02v-.19l.37-.3-.21-.47-.4-.15-.36,1.25-.34.33-.38.23-.26.31.41.33.14.51-.12.47-.36.21-.15-.06-.26-.24-.1-.05-.11.06-.24.23-.39.16-.46.48-.19.11-.35-.17-.12-.44.03-1,.1.02.22-.24.33-.46.22-.17.08.24-.02.39-.08.31.41-.1.29-.83.43-.09v-.18l-.33-.28-.38-.21-.23-.05h-.2s-.2,0-.2,0l-.21-.13-.29.19.14.78-.55.46-.84.23-2.19.21-.59.25-.62.43-.35-.59-.37.19-.39.48-.43.27-.33.07.04.18.18.24.11.27-.14.18-.31.07h-.62s-.48.17-.48.17l-.96.65-.6.03-.1-.1-.08-.17-.06-.16-.04-.07-.19.05-.1.11-.06.12-.07.08-.55.3h-.24s-.2-.31-.2-.31l.31-.35-.19-.31-.35-.35-.26-.62-.28-.33-.08-.11v-.32s.07-.2.07-.2l.04-.19-.11-.3.15-.04.25-.11.16-.02-.1-.26-.18-.18-.43-.24-.32.2-.4.12h-.41s-.74-.46-.74-.46l-.45.06-.77.42-.69.54-1.85,2.19.19.34.14.52.04.36.07.57-.1.6-.23.26-.28.19-.24.39-.06,1.09.24.98.05.88-.65.79-.5.22-.3.06-.14.2-.04.62.11.46.43.93.04.39-.24.29-.91.52-.61.54-.41.24-.3.02.06-.42.43-.34.07-.12.15-.37.04-.2.18.24.24.04.21-.16.09-.36-.08-.44-.2-.24-.25-.16-.24-.19-.36-.22-1.3-.45-.46-.08-.12-.12-.51-.73-.23-.15-.57-.24-.2-.12-.47-.42-.39-.24-.38.09-.44.58h.29v.15l-.72.03-.24-.14-.04-.4.61-.5.34-.36-.02-.16-.19-.05-.29-.22-1.19-.46-.78.3-.3-.08-.26.17-.64.28-.23.05h-.56l-.09-.08-.07-.15-.1-.03-.17.26.18.28.07.32-.09.27-.29.15h-.15s-.08-.01-.08-.01l-.04-.08v-.16s-.07-.21-.07-.21h-.12s-.1.06-.1.06v.07s-.65-.23-.65-.23l-.18-.1-.36-.39-.21-.1-.29.13.1.2v.11s-.1.19-.1.19l-.05-.02-.2.18-.03.15-.07.09v.09s-.05.09-.05.09l-.17.08-.14-.03-.12-.14-.1-.18-.06-.16-.1.25-.12.16-.15.04-.19-.11.18-.34.05-.45-.09-.39-.22-.17-.14.17-.56,1.08-.48.68-.22.22-1.02.65-.29.05-.17-.33-.15.09-.18.04-.16-.05-.07-.16-.04-.22h-.1s-.13.08-.13.08l-.15.06-.04.06-.12.12-.16.12-.18.06-.1-.09-.05-.2-.21-.27.03-.29.11-.2-.02-.12-.18-.04-.69-.52-.43-.75-.63-.17-.76-.27-.45.82-.93,1.07-.75.65-.12.56-.22.22-.34-.25-.11-.2-.29-.14.02-.31h.4s.21-.58.21-.58l-.04-.28.12-.36.08-.29-.09-.27-.15-.19.15-.59-.18-.31-.52-.05-.11-.26-.08-.34-.13-.25-.02-.27.24-.41.27-.24.26-.17.24-.22.2-.4.05-.33-.06-.22-.09-.18-.11-.63-.28-.49-.06-.28-.04-.09-.32-.25-.1-.23.08-.18.14-.17.09-.17.07-.77.07-.31.14-.29.23.1.33.05.3-.05.13-.2.13-.07.85-.19.32-.17.45-.14-.32-.29h-.29s-.79-.17-.79-.17l-.21-.09-.13.21-.05.07-.25-.09.11-.29.18-.28.23-.21.36-.29.27.1.27.23-.04.28.18.11.26.02.3-.04.28-.1.21-.14.28-.1.51.29.34.09.37-.04.14.82.26.23.39.04.13-.27.26-.37-.37-.41-.06-.16v-.32s.46.12.46.12l.3-.1.57-.11.37-.1.24.23.34.5-.31-.04-.31-.24-.21-.05-.24.09-.15.23-.12.29-.09.33-.06.36.15-.07.26-.2.15-.05.99-.05.79-.22.24-.58h.62s1.01-.2,1.01-.2l-.02-.74.27-.29.61-.62.12-.22-.15-.49.14-.11.43-.1.78-.61.32-.34.3-.4.09-.27.04-.57.15-.12.42.03.22.04-.03-.22v-.41s.05-.44.05-.44l.38-.13.29.14.55.14.3-.23.05-.2.14-.09.64.08.71-.09.91-.27.67-.3.37-.18.36-.23.1-.58.08-.21.14-.33.46-.09.1-.19.46-.44.68-.63.83-.61.49-.72.27-.27.4.11.14-.34.06-.55.98-.89.42-.39.54-.44,1.2-.94.42-.53.71-.14.47-.2.48-.35.2-.75.63-.48.47-.35.19-.25-.05-.27.32-.38.12-.37,1.23-.96.58-.49.7-.31.05-.32.38-.12.52-.27.94-.28.36-.26.26-.46.25-.42.17-.64.05-.43v-.34s-.07-.35-.07-.35l-.35-.19-.46-.33-.15-.28.24-.25.42-.05.54-.15h.4s.68.01.68.01l.29-.07.13-.12-.21-.18-.39-.18.22-.05.34-.11.47-.1.6-.36.67-.28.56-.12,1.18-.05.5-.14.48.04.07-.63.38-.07.47.1.39-.13.18-.39.19-.31.26-.17.35.12.2-.31v-.35s.29.1.29.1l.3.32.45.37.31.19.68-.23.36-.02.36-.26.11.12-.14.24.1.1.23.03.14-.09.41-.17.42-.05.45-.02.35.22-.27.17-.29.08-.25.12-.35.1-.26.34-.06.06v.3s.12.3.12.3l.08.35.61.4.72.38.64.13.41.1.4.05.36-.06.49-.87,1.06-.49.67-.3,1.12-.28,1.08.31,2.03.46,3.71-.3,1.99-.57.54.45,2.85-.43,1.32-.26.5-.17.4-.29.25-.53,1-.2h.19s.19-.05.19-.05l.31-.39.77-.25,1.08-.42.65-.41.8-.46,1.09.32,1.18-.12.9.02,1.55-.08.64.02.31.08.43.13.17.3.43-.33.36.02.08.29.26-.08.37.12.23.08.42-.35.13-.08.21-.08-.08-.32.58-.4.47-.03.37-.04.33-.23.84-.61-.03-.33,1.03-.33,1.02-.21.54-.08.34-.23.49.37.23.46.31.21.32.5.24.58.04.44-.14.35-.41-.27-.42.3-.26.54-.08.33-.2.21-.57.68-.34.56v.5s.16.14.16.14l.22-.04.03-.44.28-.22.28-.42.27-.18.11.52.25.11.11.11-.18.14h-.21s-.25,0-.25,0l-.02.4,1.29.73.3-.13.17-.15.23.41-.12.34-.1.23-.2.48-.04.2.11.3.23-.19.2-.42.26-.4.37.02.5.24.15-.14v-.63l-.59.14-.48-.22-.26-.69.48-.42.25-.09h.6s.27-.1.27-.1l.2-.21.2-.26.08-.27.49-.32-.1.41-.12.38.36.15.27.17-.09.39.04.25-.04.17v.12s.2.05.2.05l.15-.08.15-.2.2-.41v.46s-.07.45-.07.45l.05.35.38.14.59.02.19-.02.19-.08.4-.23.18-.3.4-.38.5-.27.43.21-.1.12-.47.2-.15.71-.26.18.47.16,1.06-.29.57.03.28-.2.21-.38v-.5s-.57.28-.57.28l-.25-.46-.35-.14.3-.41.67-.21.2.16.17.38.43-.02.35.47.34.11.49-.19-.22-.1-.15-.19-.3-.56.06-.18.23-.06.21.21.29-.1.3-.14-.07-.19-.15-.14-.14-.19-.07-.35-.08-.1-.29-.35-.09-.32.24-.03.36.28.27.22.29.18.7-.17.16.24.2.17.41-.26.23-.26.41.07.2-.11.02-.33-.37-.3.2-.53.02-.37-.09-.3-.28.06v-.7s.52-.29.52-.29l.78-.65.29.48-.05.21.16.39.16.48-.1.31h-.21s-.1.27-.1.27l.33.27.09.29.45-.08.11-.43.14-.13.05-.16-.02-.35.2-.27v-.24s.01-.47.01-.47l.14-.42v-.4s-.24-.5-.24-.5l-.24-.42-.13-.33-.45-.35-.75-.82-.39-.36.04-.71-.02-.58-.49-.61-.28-.33.12-.68.5-.3.26-.32.37-.85.27-.59.26-.77,1.01-1.29.3-.61.26-.37.3-.63-.32-.56.1-.17.43-.03.36.05.7-.31,1.68-1.48.41-.64.99-.47.73-.64.98-1.06,4.31-5.89,1.02-1.75,1.46-3.59.1-.49v-.61s-.15-.15-.15-.15l-.16-.17.03-.25.18-.44.14-.74-.16-.49-.36-.34-.22-.88-.23-.19-.04-.55.17-1.3-.12-.4-.26-.2-.21.06-.04.29-.41-.03-.13-.32.09-.66.15-.61.17-.41.31-.34-.16-.29.31-.3.27-.48.14-.4-.18-.32-.06-.72.57-.84.71-.41,1.2-.66.79-.22.47.25.64-.03,2.26-1.25.55-.13.41-.51.46-.39,2.91-.96.83-.18.93.37.2.29-.15.5.03.3.28.22-.06.35-.1.2-.54.17-.36-.02-.42-.08-.39.17-.3.19-.16.4-.18.87.24.59.38.06-.04.4-.06.36-.14.28-.37.35-.15.25-.43-.02-.9-.2-1.17.45-.33.57-.44.6v.5s-.35.22-.35.22l-.44.14-.12.34-.26.17-.7-.3-.41-.28-.3-.25.21-.28.07-.17h-.18s-.19.26-.19.26l-.23.08-.08.21-.2.39-.49.64-.26.75.32.14-.05.55-.11.19-.39-.02v.56s-.16.32-.16.32l.28.18.38-.09.43-.24.4.07.61.72.35.13.49-.22.42-1.03.3-.19.17.1.14.49-.11,1.46.11,1.45-.56.72-.05.64-.77,1.1.37.9.97.64.57.54.97.34.6.41.83.07.91-.18,1.18.21.71-.15.35-.5.68-.46.23-.7.28-.46.1-.43.14-.39-.12-.5.27-.65.42-.3,1.06-.57,1.8-.36,1.98-.46,2.55-1.1,1.83-.69,2.11-1.38,1.11-.49.48-.51.42-.55,1.38.24.87-.19.78-.38,1.65-1.22,2.31-2.35,2.33-1.45.56-.65.39-.84.53-1.09.77-1.21,1.2-1.05.58-.83.39-.98.9-3.28.36-.95.63-.79,1.49-1.23,2.66-1.85.17-.24h.48s.85-.1.85-.1l1.72-.81.48-.35,1.35-1.01,2.13-2.35.35-.51.15-.47.61-5.39.22-.98.41-1.09.77-1.41,1.03-2.6.39-1.09.57-.87,1.83-1.7.64-.88.54-1.01.85-3.27.87-2.41.2-.79.14-.96.14-.43.23-.49.08-.51.04-1.09.12-.84.27-1,.31-.65.65-.31.65-.76.51-2.13.58-2.59.22-5.16v-.79s-.42-1.12-.42-1.12v-.64s-.24-.84-.24-.84l-.47-.71-.78-.78-.92-.51-.9.15-.27.28-.19.3-.23.24-.38.1h-1.35l-.17-.22-.28-.69-.16-.29-.44-.58-.09-.56.31-.19-.38-.23-.07-.75.06-.46.88.62,1.17.53.45.04.92-.62.77-.9,1.52-2.9.32-1.19-.1-.58.29-.84.17-.35.18-2.63.09-.59-.26-.35-.27-.25-.72-.72-.36-.4-.07-.42.06-1.18-.04-1.17-.02-.63-.24-.27-.05-.45-.27-.41-.8.07-.4-.18.07-.51.41-.45.41-.47.52-.12.26-.62.43-.21.22-.43.34-.66.23-.66.98-.7.48.06.53.44.26.14.3-.02.37-.13.3-.32.89-.68.43.22.44-.14.36-.33.26-.46.53-1.67.26-1.7.14-.49-.02-.66.08-.58.05-.76h.06l.33.61.18.19.26.15.15.19.26-.06-.13-.66-.13-.25.15-.17.18-.04.23.07.23.04-.07-.23-.11-.14-.41.03h-.22s-.36-.02-.36-.02l-.13-.14-.08-.16-.14.12-.14.12-.06-.11-.03-.69-.02-.34-.45-.77-.38-.22-.35-.05-.34-.06-.05-.29.22-.14.52-.04.46.1.34-.36.18-.61.07-.52-.09-.27.04-.29.05-.69.17-.25-.06-.34.08-.19.35.32.41.27.26.1.37.43.54.73.54.39h.44s.56-.38.56-.38l.28-.61.49-.17.93.17.8.71.2.62-.12.73-.05.8-.07.27v.34s.12.58.12.58l.09.83.27.9.38,3.07.62,1.15,1.01.49.96-.11.65-.75.44-.46.38-.85-.1-.19-.06-.31.08-.2.08-.1-.17-.07-.19.06-.13-.07-.14-.15.18-.09.25-.02-.04-.22.03-.19.2-.16-.05-.17.07-.13.21-.51.13-.08.29.05.24.35.5.05.2.1.19.35.18.23.31.27v.16s-.03.06-.03.06h0s-.06.15-.06.15l-.03.23.1.06.23.04.41.13.49.3.25.1.23-.05.2.15.12.29.2.37.19.13.38.24h.31s.43-.17.43-.17l.34-.34.44-.54.85-2.07.21-.77.11-1.83.12-.42-.03-.24.12-.32.23-.2.18-.28.12-.51-.15-.82-.3-.71-.42-.73-.61-.73-.46-.34-.45-.04-.18.4-.13.23-.18.24v.11s.14.03.14.03l.12-.19.13-.16.06-.05v.1s-.04.14-.04.14l-.21.33-.69.6-.38.11-.46.37-.29.37-.49-.08-.59-.27-.28.07-.3-.09-.3.18-.35.45h-.79s-.35.26-.35.26l-.32-.08-.26.07-.7.49-.29.48h-.34s-.67-.45-.67-.45v-1.08s0-.31,0-.31l.26-.3.13-.77-.09-.46.26-.72.13-.67.08-.5v-.23s.25-.22.25-.22l.17-.74.08-.63.2-.84.34-.33.63-1.02.29-.24.06-.13.12-.54-.03-.34-.13-.3.09-.11.07-.29.13-.23.28.37.49.31.28.35.28.31.31.18.21.11.37.08.9.08.87.47.72.84.34.44.42.32.08.23.23.28.84.54.83.39h.86s.64-.19.64-.19l.68-.34.58-.49.43-.43.35-.34.26-.32.07.12.06.18-.13.16.06.26-.03.09-.17.11.04.12.09.11-.05.29-.25.31-.11.41-.16.58-.17.47-.31,1.53-.1.71v.27s-.28,1.63-.28,1.63l.08.62.08.27-.08.32v.37s.04.3.04.3l-.21,1.67.04,1.45.05,1.18.06.33.26,2.85.36,2.47.29,1.51.68,2.08.25.52.19.32.58.66.26.18h.32s.23-.22.23-.22l.33-.08.14.26.15.29.71.56,1.18,1.36.2.24.58.79.14.51.36.27.2.39.1.28.29.68.06.17.06.33.15.23.37.45.55,1.05.24.68-.16.31-.2.09-.19.22-.1.27.06.25.26.21.55.23.25.2.25.55-.23.32-.38.33-.2.55.1.65.26.41,1.33,1.24.22.13.22.07.17.13.12.58.09.29.04.29-.1.27-.24.33-.06.18.22.48.13.22.14.18.12.23.07.82.07.35.48,1.65.05.13-.02.14.06.19.04.21-.08.21-.23.26-.05.13-.15.63-.06,1.19-.05.39-.28.59-.09.38.12.35.95-1,.49-.09-.11.25-.04.18.04.15.11.16-.18.45.07.28.58.57.1.08.08.09.05.16-.02.26-.1.11-.11.09-.05.19-.13.09-.72.9-.33.21-.68.26-.27.28.37.47.52-.05.46-.38.2-.49.16-.16.29.18.16.29-.25.15-.13.16-.03.38v.43s-.14.18-.14.18l-.43.04-.19.05-.19-.02-.22.05-.19.15-.44.41-.24.17.52.25-.22.36-.54.41-.45.42.4.15.45-.15.42-.28.28-.27.05.63-.41.39-1,.47.16.12.12.18.08.23-.17-.02-.35.03-.17-.02-.02.35.02.36.67.02.32-.05v.03s.04.54.04.54l-.39.42-.57.21-.48-.09.06.4.25.15h.67s-.22.44-.22.44l-.42.28-.53.14-.53.04.36.37.98.76.09.32-.47.22-1.13-.39-.38.36.88.46.25.27-.23.1-.25.06-.25.02h-.26s0,.18,0,.18l.22.13.29.25.16.24-.17.11-.84-.2-.83.12-.43-.04-.37-.27v.38s.12.3.12.3l.16.28.14.31-.24-.04-.2.04-.28.35.31.11.11.25-.08.25-.27.11-.27-.1-.27-.24-.22-.29-.14-.27.27-.13.15-.25-.88-.04-.26.3.05.54.1,1.12.48,1.33.1.55-.44-.33-.06-.13-.07-.36-.07-.15-.11-.07-.11.04-.13.07-.15.04h-.39s-.21.08-.21.08l-.08.24-.02.49.05.51.07.24-.05.18-.28.33-.88.68-.18.34.21.13.14.19.21.41.37.32.11.27-.13.4-.14.11-.11-.08-.11-.12h-.13s-.1.08-.1.08l-.26.37-.2.15-.51.18-.21.13-.36.29v.15s.22.27.22.27l.23.12.97.06.06.17-.14.37-.21.37-.13.17-.91.73.33.32.33.41.32.18.3-.37.27.41.11.39v.43s-.1.54-.1.54l-.23-.07-.16-.15-.11-.22-.08-.26-.29.99-.12.25.12.08.05.09.03.1.06.12-.52.16-.24.13-.02.16.14.29v.23s0,.21,0,.21l.21.25.24-.2.4-.07.39.11.24.34-.31-.12-.28-.02-.23.14-.16.36.49.3.08.53v.57s.28.4.28.4l-.11.2-.25.71-.14-.07-.56-.57-.14-.08h-.3s-.14-.1-.14-.1l-.07-.19.07-.16.08-.14v-.14s-.2-.21-.2-.21l-.66-.33.11-.18.18-.56-.24-.23h-.18s-.18.07-.18.07h-.25s-.24-.08-.24-.08l-.21-.12-.46-.44-.42-.18-.59.03-1.54.36-.56.22-.44.38-.18.62.06.6-.11.04h-.36s-.09-.17-.09-.17l-.33-1.1-.18.13-.18.05-.18-.04-.17-.14-.38.28-.3.37-.22.46-.11.52.2-.11.23-.03.2.09.09.23-.06.2-.17.14-.21.13-.2.16-.73.89-.6.99-.43.96-.84,3.16-.15,1.1.02,1.1.26,1.91.02.07.53,1.02.7,1.3.23.92.07.37.19.27.1.34v.52s-.07.21-.07.21l-.2.35-.03.17.07.17.28.37.06.26.28,7.02-.12.84-.45,1.89v.81s-.13.34-.13.34v2.4l-.05.28-.35.85-.28,2.27-.29.92-.71.7-.18.06-.52.11-.67.47-.49.14-.31.36-.17.08-.16.13-.05.29v.45s-.1.27-.1.27l-.08.23-.85,1.35-.2.43-.99,3.86-1.13,2-.32.86-.28,1.85v.4s.28.98.28.98l.02.41-.16.66-.77.84-.31.55.05.95.24,2.16.65,1.68.74,2.08,2.95,5.19.85,1.21.22.47.22.12.14.05.11.04.19.11.11.22-.22.6-.17.23-.28-.19-.14-.23-.24-.24-.52.12-.66.31-1.03.37-.09-.41-1.14.26-1.33.92-2.32,2.18-1.24,1.9-.77,2.77.39,1.31.17.7-.18,1.05-.11.94-.1.64-.34.51-.59-.11-.38.57.06.39-.25.3-.37-.08-.18-.33-.32.37-.53-.07-.33.56-.77-.06-.92-.08-.43-.11-.59.63-.11.55-.52.41h-.41s-.71.52-.71.52l-.62.45-.21.33-.12.43-.22.36v.42s-.04.46-.04.46l-.2.32-.19.23-.34.28-.53.11-.37.04-.25-.09-.3.06-.26.06-.1-.12-.33-.19.06-.23-.04-.34-.25-.22-.66-.27-.45-.05-.09-.21v-.28s.26-.02.26-.02l.38.06.22.02.29-.07.24-.13.14-.22.27-.02.38.11.14-.09.09-.22-.05-.35-.24-.19-.42-.16-.02-.26.24-.24.07-.28-.05-.28-.19-.48-.05-.27v-.9s-.35-.57-.35-.57l.07-.33-.05-.36.11-.35.56-.39.27-.24.02-.56-.37-.64.02-.55-.85-.3-.53-.22-.02-.1.43.02.45-.28v-.47s.3-.31.3-.31l.12-.43.99.3.31-.37v-.34s-.16-.78-.16-.78l.26-.29.57-.2.37-.35.49-.06.48-.37.29-.45.44-.57.63-.73.38.05.16-.37.09-.3h-.33s-.06-.47-.06-.47l-.07-.45-.32-.3-.33-.39-.3-.26-.49-.48-.27.08-.25-.3-.68-.1-.61.27.39.64-.57.32-.31.25-.12-.22-.24-.05-.18-.16-.14-.02-.29-.14-.14.22-.12.36-.27-.21-.07-.38h-.28s-.13.49-.13.49l-.23.39-.29-.36.02-.59-.21-.31-.15.55.22.77.33.52v.31s.29.71.29.71l-.25.32.02.35-.03.04-.17.24-.7.44-.63.49-.53.09-.44-.17-.31.08-.19.26.41.2.38.2.14.16-.11.34.1.46h-.25s-.51-.25-.51-.25l-.29.23.13.33.31.29-.05.95-.1.32v.41s-.03.31-.03.31l.19.28.14-.31.26.18.36.57.82.09.23.41-.4.39.07.1.03.09.03.08-.09.39-.81-.05-.46.38-.12.39.21.46.2.26.1.23-.21.1-.22.04-.47-.12-.33.2-.19-.06-.1-.2.1-.27-.04-.54-.26-.7.46-.25-.08-.2-.32-.11-.14-.36-.58-.76-.07-.18-.11-.27-.25-.02-.09-.5-.36.15-.41-.05-.41.09-.41-.32-1.07-.14-1.74.36-.99.21-1,.27-1.02.55-.77.71-.07,1.29.32,1.2-.77-.35-.66,1.01-.24.88-.02.55.62.1-.09.47-.1.48-.22.36.29.57.62.24.24.57.12.93-.15.87-.44.08-.42.28-.22.35-.09.35-.19.48-.32.41-.15.37-.18.26-.34.08-.15.25-.17.19-.25.33.08.29-.11.17-.17.34-.07.45.04.46.12.37-.23.13-.2-.03-.16-.17-.49-.21-.92.8-.72.39-.53.44-.31-.16-.29-.28-.23-.32-.48-.52.13-.4-.08-.19-.15-.13-.16-.06-.15-.09-.11-.23v-.44s-.05-.49-.05-.49l.25-.21.11-.27.26-.08-.32-.79-.22-.76.2-.41.09-.42-.04-.07v-.51s-.13-.25-.13-.25l.19-.36.28-.27.27-.05-.23-.38-.09-.24-.21-.61-.04-.6.31-.58.19-.58.83.07.59.11.4-.03h.38s.28-.27.28-.27l-1.11-1.19-.31-.54-.72-.56-1.21-.33-.99-.1-.67.3-.54.28-1.04.04-.67.46-.54,1.14-.61.46-.06.8.25.24v-.52l.29-.19.22.06-.36.92-.94.53-.79.36-.6.31-.69.38-.28.33-.13.4-.21.35-.17.47.04.25.22.47-.31.46-.23.24-.45.82-.9.67-.69.67-.29,1.3-.17.46.15.5.5.13.31.34-.14.2-.89-.17-2.94-1.33-1.64-.3-1.54-.03-2.07.71-2.23-.78-1.82-.16h-.99s-2.45.24-2.45.24l-1.81.51-4.09,1.45-.92-.1-1.05.32-.27.03-.32.02.15-.3.12-.18.26-.49.2-.73.42-.45.58.64.07.18.13.17.16-.21.05-.1.33-.2.33-.14.3-.13.61-.43.9-.57.38-.19.46-.68.33.07.03.53-.08.39.16.04.13-.43v-.48s.47.13.47.13l.17-.15-.58-.25.17-.46.07-.29-.06-.16-.48-.6-.37-.27-.28.12-.42-.16-.47-.17-.31.34-.27-.11-.07.46-.04.46-.37.16v-.51s-.27.07-.27.07l-.35-.17h-.39s-.41.08-.41.08l-.29.21-.3-.22-.46.18-.44-.06-.22-.08-.33-.48-.14-.14-.39-.44-.38-.17.09-.64.42-1.01-.08-.65-.19.32-.26.67-.38.6-.15.36-.11.45-.21,1.31.23.31.22.44.52.28.19.54v.42s-.54-.05-.54-.05l-.66-.31-.72-.44-.45-.28-.23-.32-.04-.41.21-.46.08-.43.16-.42v-.38s-.17-.5-.17-.5l-.26-.37-.32-.02-.1-.59-.02-.6v-.47s.04-.42.04-.42l.2-.43.22-.44.27-.47.18-.44.29-.46.06-.68.06-.46-.29-.11-.3.79-.17.56-.1-.54-.02-.36-.27-.1.19,1.16-.54.13-.08-.54h-.2s-.03.62-.03.62l-.4.09-.55-.14-.14.07-.39-.1-.91.66-.45.43-.19.38-.02.16-.11.24-.02.13.05.14.35.05-.33.27.06.46-.18.57-.48.89-1.05,1.34-.62.86-.16,1.11-.12.49-.04.52.04.12.22.4.08.09.21.13-.02.29-.09.34-.02.26.23.34.35.14h.9s.43.13.43.13l.33.28.28.34.3.29,1.55,1.02,1.05.45.22.23.22-.08h.29s.28.1.28.1l.2.16.14.3.04.26.06.24.2.24.27.1.22-.03.19.02.17.25.03.28-.19.92-.25-.12-.24-.03-.2.09-.16.24.1.16.15.14.21.08.26-.03-.32.31-.12.16-.11.2.16.26.13.42.05.46-.09.39-.2.16-.72.28-.32.07-.35-.03-.5-.14-.39-.22-.04-.28.3-.11.44.09.42.18.25.18-.04-.16-.03-.23-.05-.13.27.18.16-.52-.2-.33-.39-.12-.41.11.05.17v.08s-.03.08-.03.08l-.02.18-.7-.51-.35.29-.63.13-.48-.1.11-.39.31-.51-.34-.08-.63.2-.54.31.38.11-.02.29-.25.3-.66.28-.3.25-.32.05-.38-.44-.12.15-.09.07-.05.08-.02.22-.57-.3-.2-.04-.11.3-.11.23-.13.14.18.41-.24.02-.64-.25-.91.63-.22.24h-.66l-.98.5-.77.74-.04.71.23.2.17.09.05.14-.11.34-.1.12-.17.11-.19.08-.16.03-.21-.11-.25-.48-.17-.09-.13.12-.33.53-.24.17v.19h.3s.22.09.22.09l.14.19.05.32.37.38.19.27-.07.12-.04.14.02.66-.05.21-.3.14-.23-.14-.18-.27-.13-.26-.27.3-.29.24v.15l.47.09.15.33-.13.25-.36-.16-.1.44-.15.15-.7.12-.09.07-.16.18-.21.31-.11.08-.23.02-.43-.05-.73,1.1-1.07,2.8-.48,1.18-.07.09-.2.73-.39.26-.09.42-.42.2.03.33.43.27-.28.38-.69.74-.38.15-.19.31-1.17.38-.39.21-.23.24-.31.55.15.48-.02.3-.37-.09-.25.29-.13-.45.35-.41-.11-.33-2-.22-.63-.1-3.02-1.15-.94-.24-.73-.58-.24-.21-.21-.28v-.34s.1-.27.1-.27l-.24-.45-.12-.15-.11-.05-.22-.23-.34-.07-.29-.35.31-.56.74-.1.48-.07-.22-.31-1.04-.78-.4-.19-.19-.31-.37.05-.61-.43-.65-.02-.06-.41-.69-.4-.48-.58-.42-.93-.7-.42-.38.08-.71.11-.14.14.05-.24.11-.16-.19-.12.14-.12h.31l-.02-.31-.17-.3.31-.29.34-.3-.13-.11h-.36s-.03-.47-.03-.47l.33-.36.44-.03.3-.13.52-.28.17-.38.02-.37-.2-.22-.41-.24-.46-.18-.34-.05.42-.85.05-.04.17-.07.07-.06.04-.11v-.23s-.16-.36-.16-.36l.53-.02.79.05.06-.34-.21-.4-.29-.52-.35.03-.27-1.05-.33-.36-.55-.44-.65-.18.21-.46.69-.8,2.14-.6.98-.86.51-.52.79-.78.69-.96.39-.42.04-.58-.02-.28.37-.12.17-.23.19-.2.12-.43.02-.55v-.74s-.16-.61-.16-.61l-.08-.62.19-.83-.32.15-.34.12-.37-.2-.45-.49-.49.04-.63.04v.64s-.68.07-.68.07l.03-.6-.72.25.46,1-.65-.11-.13-.55-.38.06-.04.59-1.49.27-.65.32-.69.07-.6-.43-.77.03-.39-.07-.48-.59-.6-.26-.4-.35-1.13-.75-.68-.24-.78-.65-.37-.24-.99-.24-2.66.24-.14-.04-.11-.08-.11-.04-.13.08-.1.09-.13.09-.14.06-.12.02-.27-.03-.21-.09-.11-.2.02-.36-.14.04-.13.08-.1.13-.04.17-.03.2-.06.02-.09-.03-.11.06-.53.73-.18.12-.29-.02-.22-.13-.18-.15-.17-.06-.27.1-.22.22-.11.28.04.28-.56.02-1.03-.27-.59-.07-.56-.26h-.25s.17.41.17.41l.21.1,1.07.24-.16.05-.4.06-.14.06-.42.6-.09.1-.16.05-.33.23-.37.08-.16.07-.32.23.14.12.17.04.19-.04.2-.11-.25.56-.6.44-.72.28-.6.1-.29-.11-.45-.47-.38-.11h-.71s-.31.07-.31.07l-.52.32-.35.14-.24.23.09.42.27.15.3-.23.55-.61.34-.14.38-.06.34.08.22.3v.44s-.26.29-.26.29l-.33.22-.26.24.05.08.02.05.07.21-.59-.21-.34.55-.26.81-.36.56-1.59-.29-.77.02.1.61-.66-.13-.29-.51-.24-.61-.52-.45-.14.09-.13-.11-.1-.24-.05-.28-.14.19-.34-.15-.31.15-.32.23-.59.23-.91.48-.21.16-.06.18-.14.13-.16.08-.38.07-.15.1-.11.11-.12.09-1.27.52.81-.95.27-.52-.44-.23-.22.07-.45.31-.25.12-.54-.02-.23.13-.09.42.16.15ZM314.4,39.49l.31.17h.93s.38.12.38.12l-.73.26-.9-.19-1.7-.64.08-.21h.38s.48.08.48.08l.45.17.31.24ZM352.86,61.43l.26.04.68.21.24.14-.13.26-.17.1h-.46s-.21.13-.21.13l-.36.54-.27.12-.79.18-.2.12-.31.33-.23.07-.6-.12-.3.07-.16.18-.12.25-.19.29-.55.54-.16.23-.12.31-.18.7-.11.33-.13.22-.59.76.28.17-.24.07-.41-.04-.42-.12-.53-.33-.35.05-.64.2-2.09.04-.46.24-.45.44-.56.24-1.58.25-.32.12-.27.23-.13.39.07.5.26.11h.34s.33.14.33.14l-.19.25-.2.12-.78.08-.06.12-.03.18-.15.23-.48.3-.5.03-.99-.32.39.68.11.31-.08.37-.19.19-.29.09-1.36.22-.7-.03-.64-.25-.55-.53-.03-.27.05-.35-.06-.3-.38-.13-.24-.02-.13-.03h-.1s-.16.05-.16.05l-.14.13-.22.37-.14.08-.18.15-.21.36-.17.42-.07.33.12.4.29.3.33.27.25.29-.85.3-2.94-.7-1.59.14-.53.3-.64-.11-1.53-.54-.17-.14-.19-.23-.09-.24-.07-.32-.14-.28-.26-.12-.46.03-2.88.74-2.9,1.4-3.2,2.31-1.98,2.43-3.11,2.69-1.31,1.61-2.61,4.14-2.04,3.78-.36,1.17-.14,1.32.24,1.57.03.63-.04.57-.1.63-.57,2.25-.23.57-.55.51-.26,1.24-.23.38-.32-.12-.47-.38-.43-.43-.19-.29-.21-.51-.47-.56-.52-.48-3.2-2.14-4.15-1.47-4.34-2.56-1.78-.58-3.68-2.65-1.21-1.26-1.12-1.34-2.16-.3-1.68-1.1-1.13-1.35-.34-.19-.43-.12-1.46-.83-1.87-.49-1.84.04-1.79.41-2.5,1.03-3.4,2.68-.57.27-.4.39-.24.09-.25.03-.24.08-.23.12-1.59,1.15-.38.41-1.16,1.7-.32.31-.23.1-.26.05-.26-.02-.25-.12-.14-.15-.18-.26-.11-.25.09-.11.81.17.18-.07.05-.3-.25-.19-.57-.18-.42-.33-.18-.21-.12-.22-.22-1.12-3.45-4-.97-.42-.48-.02-1.35.23-1.48-.25-.51.04-.89.42-.83.73-.74.92-1.14,2.01-.44,1.11-.32,1.19-.15,1.26.21,1.26.61.71,2.11,1.16.66.53,1.52,1.7.38.17.48-.06.78-.27,1.32-.12.39-.11.42-.2,1.23.87.32.77.98,1.41.34.34.78.54.34.35,1.35,1.8.37.32.4.23.45.14.53.04.49.12.49.3,1.56,1.48.35.52-.21.24-.95.14-.45.18-.36.25-1.25,1.28-.76.32-.95-.27-1.76-1-1.03-.34h-1.01s-.93.57-.93.57l-.45.12-.19-.39.17-.39.32-.26.23-.28-.13-.49-.38-.36-.5-.15-.5.08-.39.33-.21.49-.32,1.17-.24.51-1.22.65-.2.2-.23.18-1.1.32-.35.17-.4,1,.2,2.23-.22.9-.65.49-2.59.84-.31.26-.38.43-.32.53-.13.57-.22.44-.49-.07-.98-.47h-.22s-.35.17-.35.17l-.19.04-.25-.09-.52-.4-.22-.09-.28-.22-.21-.52-.29-1.14-.62-1.58-.08-.58.09-.59.39-.87.33-1.71,1.06-1.74.24-1.12.09-.12.45.05.17-.03.19-.26.06-.25.03-.62-.02-.16-.13-.24v-.16s.07-.13.07-.13l.15-.12.21-.12.04-.32.02-.45.08-.17-.13-.44-.11-.53-.02-.52.14-.42-.68-.79-1.04-1.91-.69-.71-2.06-.93-.37-.49-.02-.12-.11-.13-.4-.82-.19-.14-.64-.24-.93-.76-.22-.3-.2-.68-.21-1.11.1-.54.25-.57.86-1.43.22-.61.26-1.26v-1.25s-.35-2.08-.35-2.08l.22-1.07.69-1.02.83-.39,1.99-.12.49-.12.33-.23.86-1.11.2-.15.21-.08.25-.03.17-.12.17-.28.52-1.09.28-.4.35-.11.46.36.47.79.31.33.43.1.45-.35.14-.66.04-.64.15-.29.38-.22.3-.53.52-1.14.33-.41,1.4-1.41.86-.59.37-.46.12-.54-.21-.41-.31-.44-.16-.64-.15-.4-.99-1.44-.68-.74-.79-.64-.61-.77-.18-1.13.63-2.1h1.02s.5-.09.5-.09l.39-.29.11-.26.06-.3.08-.27.17-.16.28.04.26.2.22.23.16.11.35.15,1.76,1.32.37.35.62.81.42.34,1.48.7.2.22.31.42.2.14.28.09,2.11-.33,1.56-.64.47-.06.23.15-.21.37-.16.49.36.51.22.08.77.1.84.36.51.11.43.26.26.06.37-.02.28-.06.55-.31,1.57-1.21,1.38-1.51.55-.82.53-1.08.35-1.24v-1.3s-.27-.76-.27-.76l-1.15-1.77-.23-.75.05-.56.25-.49.35-.53-.38-1.11-.18-.26.06-.53-.47-1.25-.13-.64.13-.53.3-.69.55-1.01.35-.35.47-.31.48-.22.88-.14.4-.15.37-.25,1.16-.97.64-.78.51-1,.38-1.31.17-1.18.06-1.19-.3-6.03.21-1.03,1.68-3.21.92-4.98.09-1.29-.26-3.58-.61-3.48-.65-2.02-2.78-6.09-.24-1.24.18-1.29.12-.21.42-.52.16-.28.1-.31.04-.28.06-.26.44-.78.02-.48-.23-.92-.04-.45.05-.49.18-.47.36-.39.24.18.13.24.05.31v.39s.12.29.12.29h.25s.48-.19.48-.19l.95-.12,1.01-.28.71-.52.22-.08.14-.15.04-.35v-.4l.03-.3.31-.48.52-.45.53-.14.32.3.35.86.21.36.29.15.33.23.8,1.57.82.87,1.78,1.35.78.77,6.54,8.2,1.54,3.33.34.58.72.5.99,1.75,3.98,4.6.66.37.86,1.39,1.26.91,1.56,1.67,1.77,1.43.42.14.33.18.78.87.38.33.89.23.23.16.35.85v.15s.58.67.58.67l.18.16,3.02,1.86,4.61,1.81v.2l-1.67-.21-.31.21.1.18.49.52.11.19.28,1.08.21-.13.08-.08.3.31.26.18.28.09,3.01.05.17.07.58-.68.35-.28.33-.11,2.47.14.69.34.38.32v.09s-.27.06-.27.06l-.38.22-.28.37-.44,1.39.68.31.3.02.29-.16.22-.28.23-.43.18-.48.07-.44.29-.83.57-.22.42.33-.16.81.26.86.21.36.32.15.18.21.34.94.19.21.18.1.88.68.33.16.72.24,2.88.51,3.5.29.98-.2.89-.58,2.39-2.62,1.84-2.18.23-.34,1.46-.93.97-1.03.38-.14.34-.3,1-1.89.81-.78.41-.5.18-.57.09-.16.19-.12.19.02.16.56.36.66.12.31-.03,1.25-.45,1.07-1.22,1.64-.23.59-.2,1.4-.18.45-1.87,2.4-.52.92-.45,1.02-.33,1.04.2.52-.12.58-.23.54-.19.63-.3.42-.07.33.02.37.05.22.85,1.9.29.43,1.33,1.45.26.39.23.49.16.56.06.62.07.23.3.27.11.46.25.7.54,2.39.43,1.09.7.96.98.77-.66.11-1.28-1.12-.6-.14-.2.22-.04.32.13.29.33.13.37.08.35.18.12.2-.34.12.36.43.61.31.67.18,1.74.17.48.24.52.44.1-.34-.18-.22-.25-.23-.1-.38.13-.2.78-.68.85-.96.26-.2.53-.14.27-.15.13-.19.07-.2.11-.19.26-.17.29-.06.97.06.17-.06.26-.28.12-.07.14.03.09.07.06.07.05.02ZM31.91,353.36h.47s.23.18.23.18l.14.48-.07.29-.35.98-.13.24-.37.09-.3-.18-.14-.35.11-.41-.21-.24-.17-.4-.08-.43.04-.35.16-.12.22.03.43.18ZM37.2,345.87l.62-.3.35-.04.24.34-.69.46-.86,2.33-.63.54-.07-.12-.02-.27v-.53s-.08-.27-.08-.27l-.22.06-.38.29-.82.06-.4.1-.47.2-.42-.64-.18-.36v-.34s.11-.14.11-.14l.13-.05.29-.05.18-.11.41-.48.46-.33.31-.15.75-.25.44-.31h.16s.13.1.13.1l.05.18.07.14.17.02.37-.07ZM32.07,345.02l.6.6.2,1.01.05,2.06.05.19.05.15.03.19-.06.65-.04.19-.09.15-.18.22-.19.13-.49.2-.1.17-.41.93-.11.09-.46.23-.17.17-.45.59-.29.22-.5.29-.51.22h-.34s-.02-.23-.02-.23l.3-1.27-.24.2h-.23s-.22-.05-.22-.05l-.36.2v-.12s.06-.24.06-.24l.08-.15.64-.58.42-.27.28-.05.25.02.23-.05.23-.25h-.21s-.17-.04-.17-.04l-.33-.13-.44.19-.36-.21-.24-.45-.09-.55.03-.27.08-.22.13-.18.17-.14-.13-.39.11-.48.25-.48.28-.4.21-.53-.1-.48-.46-.76h.26s.19.14.19.14l.17.14.21.07.27-.05.42-.24.53-.14.36-.15.4-.12.42.04ZM19.64,323.84l.13,1.09-.13.33-.29.43-.3.3.22.19-.25.3-.25.13v.25s-.27.2-.27.2l.03.36-.19.49-.96,1.15-.7.5-.75.21-.37-.18-.32-.07.05-.26.1-.57.22.36.49.37.32-.05.13-.2-.07-.09-.15-.12-.23-.04-.14-.26.09-.35.25-.26.47.06-.17-.42-.04-.52.63-.53.07-.7.04-.56,1.08-.25.27-.59.16.09.14.25.34-.27-.33-.27.04-.35.63-.14ZM74.89,314.4l.18.2.45.33-.02.09-.32.06-.43-.06-.66-.34-.33.06.14-.34.28-.16h.35s.37.17.37.17ZM24.17,314.89l.48.21v.34s-.32.32-.32.32l-.48.02h-.52s-.25.51-.25.51l-.04.47-.22-.08-.4-.36-.28-.33.08-.37-.21-.15-.28.19-.16-.33-.05-.41.62.3.21.04v-.17l-.55-.43-.04-.49-.03-.29h.44s-.11-.42-.11-.42l.12-.42.16-.27.04-.28.25.24,1.37.42.02.2-.12.33v.27s.09.25.09.25l.29.24.32.15-.12.04-.19.1-.11.04v.16h0ZM74.73,312.53l-.1.13-.1.08-.21.13-.17-.49-.31-.56-.15-.58.32-.58.5-.2.57.07.53.22.39.27.58.85.29-.02.27-.15.43-.33.13-.02.31.05.12-.03.12-.15.05-.27.12-.1.25-.05.54.06h.32s-.24.24-.24.24l-.44.6-.17.02-.2-.08-.5.16-.2.13-.08.19-.03.61-.04.24-.07.26-.24-.09h-.45s-.17-.06-.17-.06l-.08-.21.02-.23-.02-.23-.21-.2-.14.18-.28-.2-.13.13-.06.26-.09.17-.25.03-.36-.13-.23.1-.15-.18ZM81.29,307.51l-.47-.27-1.11.04-.47-.19.38-.42.48-.3.26-.36-.27-.63.2-.27.26-.16.27-.07.22.02.17.15-.05.11-.02.11-.06.09-.15.03.17.3.06.29v.3s.05.32.05.32l.54-.26.06.47-.22.6-.3.11ZM90.42,304.11l-.73.41-.19-.16.17-.5.14-.11.34-.1.1-.13.02-.25-.09-.16-.16-.08h-.2s.39-.52.39-.52l.44-.45.41-.1.31.55.22.76-.08.5-.35.37-.73-.03ZM131.6,294.14l.52.43.04.3-.24.32-.31.36-.16.53-.23.61-.57.52-.49.78-.61.86-.12.93-.03.22.07.3.02.29.34.27.05.45.16.3.5.53.16.42-.42.19-.59.14-.51.32-.59.21-.46.23-.7.64-.99.22-.48.02-.04-.47-.44-.2-.07-.08.23-.47.21-.32-.73.23-.44-.55-.19-.56.26-.35.28-.65.45.13.32-.17,1.61-2.91.52-.35.38-.23.16-.14.12-.19.18-.43.13-.22.26-.5.79-.41.32-.12.51-.75.38-.54.44-.15ZM222.36,289.83l.4.22.25.38.14.49.04.55v.63s-.1.27-.1.27l-.23.06h-.43s-1.28-.64-1.28-.64l-.17-.44.02-1.18.09-.75.91.21.36.19ZM202.64,205.79l.73.08.95-.26.71.06v1.02l-.19.49-.85,1.38-.23.49-.26.99-.29.39-2.39,1.64-2.16.79-.45.06-.22-.04-.2-.12-.16-.19-.06-.26.07-.28.17-.1.99-.21.23-.16.1-.33v-1.17l.22-.43.66-.77.24-.39-.57-.8-1.38.49-.31-.76v-.62s.06-.54.06-.54l.14-.51.22-.49.86-1.2.32-.84.39-.36.39-.28.18-.28.93-.98.55-.4.84-1.49.18-.17.24-.08.51-.02.12.12-.02.29-.25,1.73-.42,1.57-.88,2.07-.12.49v.51s.1.31.1.31h.17s.16-.46.16-.46ZM343.49,55.6l.68.49.33.32.05.28-.26.15-.78.21-.16.21-.14.34-.28.14-.21-.13.08-.45.23-.26.63-.29.27-.22-2.66-1.37,1.74.36.5.22ZM325.74,45.67h.14-.12s-.02,0-.02,0ZM118.54,295.49l-.08.22.05.23.1.26.08.31-.11.72-.45,1.33-.1-.22-.19-.13-.26-.04-.29.04v-.15l.39-.06.1-.22-.18-.16-.44.1-.29.31-.22.43-.24.35-.37.08.09-.88-.11-.27-.41-.21-.38.02-.39.14h-.32s-.18-.33-.18-.33l.21-.17.02-.27-.03-.31.08-.28.59.19.5-.15.88-.56.25-.07.74-.08.71-.19h.28ZM240.64,394.58h.2l.18.14-.15.23-.25.05-.1-.17v-.13s.12-.12.12-.12ZM235.21,371.76l.02-.05.02.04h-.04ZM235.16,371.74v-.06s.04.05.04.05l-.03.04v-.02ZM27.4,361.51l-.1.09v.11s.02.15.02.15l-.03.17v.15s.06.1.06.1v.07s-.04.16-.04.16l-.14.17h-.19s-.19.04-.19.04l-.28.18h-.29s-.15-.19-.15-.19l-.11-.06-.09-.07-.03-.12-.07-.16-.13-.2-.02-.18.14-.1-.06-.05-.22.09-.16.24-.16.04-.07-.08v-.15s.05-.27.05-.27l.18-.25.27-.17.4.12.77.66.16.06.06-.15-.09-.24.1-.14.31-.05.1.05ZM33.78,350.98l.34.16.13.2-.07.14-.19.23-.22.21-.21.11-.2.04-.17.11-.09-.07v-.25s.04-.27.04-.27l.09-.25.12-.12.12-.02.05-.05.02-.09.24-.08ZM37.95,343.79l.12.15.02.26-.06.41-.1.27-.29.07-.15.07.06.23-.13-.08-.25-.21-.05-.29.1-.32-.07-.19-.17-.11-.02-.17.3-.5h.06s0,.09,0,.09l.07-.04.17-.15.17-.07.2.1.13.14-.06.19-.07.16ZM81.43,340.24l.14.19.06.22-.02.2-.15.18-.28.14-.13-.1-.05-.32v-.3s.07-.29.07-.29l.1-.13.13.08.06.05.08.08ZM19.64,321.79l.36-.05.06.19-.17.24-.28.12-.31-.04-.26-.13-.16.06-.05.11h-.09s-.18,0-.18,0l.07-.23.37-.36.35-.24h.21s.06.18.06.18l.02.14ZM83.06,308.93l.05.07v.26s-.02.27-.02.27l-.04.15-.08.12-.04.11v.25s-.3.27-.3.27l-.41.1-.23-.16-.05-.33.19-.28.21-.2.15-.12.08-.04.14-.08.24-.23.1-.14ZM92.35,304.96l.12-.02.05.11-.15.26-1.01,1.04-.36.17-.22-.18v-.43s.06-.33.06-.33l.11-.12h.12s.1.03.1.03l-.06-.2-.16-.37.14-.33.46-.1.33.14.11.18.13.14.22.02ZM85.06,304.39l.34.2.13.3-.11.24-.18.12-.15.07-.05-.04v-.17s-.12-.07-.12-.07h-.16s-.53-.25-.53-.25l-.18-.21.13-.26.28-.08.41.11.2.05ZM88.81,302.4l.15-.17.08.23-.08.57-.19.47-.05.27-.23.22-.47.11h-.41s-.27-.16-.27-.16l-.14-.33.07-.29.16-.12.07-.02.59-.28h.23s.23-.15.23-.15l.27-.36ZM76.83,301.72l.12.22.02.23v.11s-.41.43-.41.43l-.61.53-.34.12-.23-.15v-.23s.39-.64.39-.64l.25-.33.32-.2.29-.14.2.05ZM105.14,299.44l.18.29.03.33-.11.19-.15.11-.14.12-.07.07-.15-.08-.15-.28.07-.3.28-.33.06-.14.15.03ZM135.76,298.58l.74-.6.33.47-.67.48-.29-.14-.11-.21ZM111.99,297.49l-.2-.1-.06-.06.04-.06.16-.11.18-.03.35-.24.23-.06.08.07.16.15h.13s.05.04.05.04l-.03.23-.39.53-.16-.02-.17-.15h-.02s-.37-.19-.37-.19ZM170.43,296.93l.14-.18.2.04-.04.2-.09.2-.23.16-.16.11-.12-.2-.1-.2.4-.14ZM170.39,296.07l.13-.18.28-.04-.16.2v.17s-.28.06-.28.06l-.31.23-.36.08-.15-.12.35-.16.5-.25ZM168.5,287.44h.27s.26.36.26.36l.05.33-.23.07v.16s-.14.02-.14.02l-.2-.93ZM173.64,229.6l-.06.19-.02.22.03.22-.15.21-.34.15-.38.02-.37.13-.27.17h-.19s-.33.12-.33.12h-.07s-.18-.29-.18-.29l-.4-.51-.21-.41.13-.19.17.09.08.19.1.06.12-.1.14-.07h.18s.19-.07.19-.07l.15-.11.14-.04.16.05.16.15.21.15.2-.03.16-.11.22-.27.3-.12.13.19Z"/>
  </g>
</svg>